
<svg version="1.1" id="Layer_1" xmlns="http://www.w3.org/2000/svg" xmlns:xlink="http://www.w3.org/1999/xlink" x="0px" y="0px"
	 viewBox="0 0 512.001 512.001" style="enable-background:new 0 0 512.001 512.001;" xml:space="preserve" height="16"
   width="16">
<polygon style="fill:#3E3B43;" points="382.132,57.051 427.845,57.051 427.845,506.025 112.84,506.025 "/>
<polygon style="fill:#D7D5D9;" points="282.701,37.499 395.668,37.499 395.668,219.146 395.668,297.419 395.668,506.025
	80.664,506.025 80.664,37.499 104.817,37.499 "/>
<path style="opacity:0.33;fill:#57545C;enable-background:new    ;" d="M335.971,37.499v121.95v78.272v64.148
	c0,79.781-64.676,144.458-144.458,144.458H80.664v59.697h315.005V297.419v-78.272V37.499H335.971z"/>
<polygon style="fill:#3C66B1;" points="296.635,61.471 211.02,61.471 224.83,32.472 211.02,7.617 296.635,7.617 282.827,32.472 "/>
<path style="fill:#CD2A00;" d="M246.992,332.465c0,0,114.332-84.794,69.116-137.428c-38.724-45.076-68.637,27.666-68.637,27.666
	s-29.275-73.001-68.392-28.265C133.406,246.674,246.992,332.465,246.992,332.465z"/>
<path d="M425.814,47.794H408.81V35.859c0-4.206-3.409-7.617-7.617-7.617H293.89l9.404-16.926c1.31-2.359,1.275-5.236-0.094-7.562
	C301.832,1.428,299.334,0,296.636,0h-85.615c-2.698,0-5.196,1.428-6.565,3.753c-1.369,2.327-1.404,5.203-0.093,7.562l9.404,16.926
	H191.31c-4.206,0-7.617,3.41-7.617,7.617s3.41,7.617,7.617,7.617h19.846l-7.01,14.721c-1.123,2.36-0.959,5.132,0.437,7.341
	c1.395,2.21,3.827,3.55,6.441,3.55h85.615c2.613,0,5.045-1.341,6.441-3.55c1.395-2.21,1.56-4.981,0.437-7.341l-7.01-14.721h97.074
	v174.03c0,4.206,3.409,7.617,7.617,7.617s7.617-3.41,7.617-7.617V63.027h9.388v433.74h-9.388V295.777
	c0-4.206-3.409-7.617-7.617-7.617s-7.617,3.41-7.617,7.617v200.989h-282.77H93.804V43.476h16.538c4.206,0,7.617-3.41,7.617-7.617
	s-3.41-7.617-7.617-7.617H86.187c-4.206,0-7.617,3.41-7.617,7.617v468.525c0,4.206,3.41,7.617,7.617,7.617h24.621h290.385h24.621
	c4.207,0,7.617-3.41,7.617-7.617V55.41C433.431,51.204,430.021,47.794,425.814,47.794z M223.084,53.855l8.622-18.107
	c1.058-2.223,0.977-4.821-0.218-6.974l-7.522-13.54h59.726l-7.523,13.54c-1.195,2.152-1.277,4.751-0.218,6.974l8.622,18.107H223.084
	z"/>
<path d="M135.813,116.487h215.753c4.207,0,7.617-3.41,7.617-7.617s-3.409-7.617-7.617-7.617H135.813
	c-4.206,0-7.617,3.41-7.617,7.617S131.606,116.487,135.813,116.487z"/>
<path d="M321.16,152.11c4.207,0,7.617-3.41,7.617-7.617c0-4.206-3.409-7.617-7.617-7.617H166.22c-4.206,0-7.617,3.41-7.617,7.617
	c0,4.206,3.41,7.617,7.617,7.617H321.16z"/>
<path d="M166.22,442.342c-4.206,0-7.617,3.41-7.617,7.617c0,4.206,3.41,7.617,7.617,7.617H321.16c4.207,0,7.617-3.41,7.617-7.617
	c0-4.206-3.409-7.617-7.617-7.617H166.22z"/>
<path d="M343.784,411.913c0-4.206-3.409-7.617-7.617-7.617H151.213c-4.206,0-7.617,3.41-7.617,7.617c0,4.206,3.41,7.617,7.617,7.617
	h184.955C340.374,419.529,343.784,416.119,343.784,411.913z"/>
<path d="M166.22,366.249c-4.206,0-7.617,3.41-7.617,7.617s3.41,7.617,7.617,7.617H321.16c4.207,0,7.617-3.41,7.617-7.617
	s-3.409-7.617-7.617-7.617H166.22z"/>
<path d="M158.916,228.897c5.318,51.593,78.349,107.3,81.455,109.646c1.358,1.026,2.975,1.539,4.591,1.539
	c1.594,0,3.19-0.5,4.537-1.499c3.127-2.318,76.641-57.385,82.41-108.929c1.679-14.999-2.377-28.315-12.054-39.579
	c-11.446-13.324-23.697-19.042-36.421-16.99c-17.424,2.809-30.436,19.79-37.919,32.569c-7.37-12.843-20.233-29.937-37.632-32.899
	c-12.7-2.163-25.006,3.448-36.568,16.671C161.54,200.604,157.368,213.884,158.916,228.897z M182.783,199.452
	c6.913-7.906,13.628-11.895,20.004-11.895c0.848,0,1.691,0.07,2.526,0.211c15.698,2.657,29.188,28.169,33.059,37.769
	c1.153,2.875,3.933,4.762,7.03,4.778c0.014,0,0.027,0,0.041,0c3.081,0,5.862-1.86,7.04-4.71c3.957-9.573,17.67-34.967,33.39-37.486
	c7.127-1.141,14.674,2.856,22.427,11.88c6.903,8.036,9.673,17.177,8.472,27.946c-4.267,38.222-55.932,82.183-71.77,94.834
	c-15.726-12.777-66.984-57.139-70.933-95.445C172.957,216.549,175.807,207.429,182.783,199.452z"/>
</svg>
